<?xml version="1.0" encoding="utf-8"?>
<!-- Generator: Adobe Illustrator 24.1.3, SVG Export Plug-In . SVG Version: 6.00 Build 0)  -->
<svg version="1.1" xmlns="http://www.w3.org/2000/svg" xmlns:xlink="http://www.w3.org/1999/xlink" x="0px" y="0px"
	 viewBox="0 0 71.8 71.5" style="enable-background:new 0 0 71.8 71.5;" xml:space="preserve">
<style type="text/css">
	.st0{fill:#FFFFFF;}
	.st1{fill:#D50032;}
</style>
<g id="Titles_Artboard">
</g>
<g id="Backgrounds_Artboard">
</g>
<g id="full-rgb">
	<g id="logoMark_3_">
		<a xlink:href="1.4210854715202e-14" >
			<rect id="logoMark__x3C_PathItem_x3E__8_" x="33.3" y="25.3" class="st0" width="6.7" height="22.4"/>
		</a>
		<a xlink:href="1.4210854715202e-14" >
			<path id="logoMark__x3C_PathItem_x3E__7_" class="st0" d="M22.5,38.7c0,1.5-0.2,2.5-0.8,3.2c-0.5,0.6-1.4,0.9-2.6,0.9
				c-1.3,0-2.1-0.3-2.6-0.9c-0.6-0.7-0.8-1.6-0.8-3.2V25.3H9v13.2c0,3.1,0.3,4.6,1.2,6.2c1.5,2.5,5.4,3.4,8.9,3.4
				c3.5,0,7.4-1,8.9-3.4c0.9-1.5,1.2-3,1.2-6.2V25.3h-6.7V38.7z"/>
		</a>
		<a xlink:href="1.4210854715202e-14" >
			<path id="logoMark__x3C_PathItem_x3E__6_" class="st0" d="M54.4,42.7c-2.9,0-4.3-2.3-4.3-6.2c0-3.9,1.5-6.3,4.3-6.3
				c2.1,0,3.3,1.3,3.9,3.5l5.8-2.8c-1.1-2.9-4.3-6-9.6-6c-7,0-11.3,4.7-11.3,11.6c0,6.9,4,11.6,11.1,11.6c5.1,0,8.3-2.5,9.9-6.1
				l-6.1-2.2C57.5,41.6,56.4,42.7,54.4,42.7z"/>
		</a>
		<path id="logoMark__x3C_CompoundPathItem_x3E__2_" class="st1" d="M35.9,1.2c-19,0-34.3,15.4-34.3,34.3c0,19,15.4,34.3,34.3,34.3
			c19,0,34.3-15.4,34.3-34.3C70.2,16.5,54.8,1.2,35.9,1.2z M16.4,41.9c0.5,0.6,1.4,0.9,2.6,0.9c1.2,0,2.1-0.3,2.6-0.9
			c0.6-0.7,0.8-1.6,0.8-3.2V25.3h6.7v13.2c0,3.1-0.3,4.6-1.2,6.2c-1.5,2.5-5.4,3.4-8.9,3.4c-3.5,0-7.4-1-8.9-3.4
			c-0.9-1.5-1.2-3-1.2-6.2V25.3h6.7v13.4C15.7,40.2,15.9,41.2,16.4,41.9z M33.3,47.7V25.3H40v22.4H33.3z M54.4,48.1
			c-7.1,0-11.1-4.7-11.1-11.6c0-6.9,4.3-11.6,11.3-11.6c5.3,0,8.5,3.1,9.6,6l-5.8,2.8c-0.6-2.2-1.8-3.5-3.9-3.5
			c-2.9,0-4.3,2.4-4.3,6.3c0,3.9,1.5,6.2,4.3,6.2c2,0,3.1-1.1,3.8-2.8l6.1,2.2C62.7,45.7,59.5,48.1,54.4,48.1z"/>
	</g>
</g>
<g id="gray-rgb">
</g>
</svg>
